# xmcd CD database file
#
# Track frame offsets:
#	150
#	18065
#	39085
#	61936
#	76320
#	95979
#	128430
#	145096
#	166219
#	188416
#
# Disc length: 3002 seconds
#
# Revision: 0
# Processed by: cddbd v1.5.2PL0 Copyright (c) Steve Scherf et al.
# Submitted via: CDex 1.70beta2
#
DISCID=6c0bb80a
DTITLE=Invisible Change - Nyktophobie
DYEAR=2006
DGENRE=Jazz
TTITLE0=Spiegeln
TTITLE1=Vergeltungsmassnahme
TTITLE2=Das Rote Auge
TTITLE3=Fredhuhn
TTITLE4=Part II
TTITLE5=ANNA
TTITLE6=Everything You Need
TTITLE7=Fjord Focus
TTITLE8=Nobody Knows
TTITLE9=Open Circle
EXTD=YEAR: 2006
EXTT0=
EXTT1=
EXTT2=
EXTT3=
EXTT4=
EXTT5=
EXTT6=
EXTT7=
EXTT8=
EXTT9=
PLAYORDER=
